# xmcd
#
# Track frame offsets:
#	150
#	32472
#	72419
#	88315
#	126740
#	153914
#	215332
#	236973
#	262969
#	303751
#	333072
#
# Disc length: 4768 seconds
#
# Revision: 0
# Processed by: cddbd v1.5.1PL0 Copyright (c) Steve Scherf et al.
# Submitted via: dBpowerAMP V4.0
#
DISCID=97129e0b
DTITLE=Widespread Panic - Columbia 10-21-03
DYEAR=1900
DGENRE=
TTITLE0=Mercy/Jam
TTITLE1=Thin Air
TTITLE2=One kind Favor
TTITLE3=Chilly Water
TTITLE4=Drumz
TTITLE5=Ain't Life Grand
TTITLE6=Chill Water (reprise)
TTITLE7=Banter
TTITLE8=E. Old Joe
TTITLE9=Can't Get High
TTITLE10=Climb to safety
EXTD=Township Auditorium Columbia, South Carolina
EXTT0=
EXTT1=
EXTT2=
EXTT3=
EXTT4=
EXTT5=
EXTT6=
EXTT7=
EXTT8=
EXTT9=
EXTT10=
PLAYORDER=
